<svg width="28" height="29" viewBox="0 0 28 29" fill="none" xmlns="http://www.w3.org/2000/svg">
<path d="M10.5 0.5H1.75C0.783502 0.5 0 1.2835 0 2.25V11C0 11.9665 0.783502 12.75 1.75 12.75H10.5C11.4665 12.75 12.25 11.9665 12.25 11V2.25C12.25 1.2835 11.4665 0.5 10.5 0.5Z" fill="white"/>
<path d="M10.5 16.25H1.75C0.783502 16.25 0 17.0335 0 18V26.75C0 27.7165 0.783502 28.5 1.75 28.5H10.5C11.4665 28.5 12.25 27.7165 12.25 26.75V18C12.25 17.0335 11.4665 16.25 10.5 16.25Z" fill="white"/>
<path d="M26.25 0.5H17.5C16.5335 0.5 15.75 1.2835 15.75 2.25V11C15.75 11.9665 16.5335 12.75 17.5 12.75H26.25C27.2165 12.75 28 11.9665 28 11V2.25C28 1.2835 27.2165 0.5 26.25 0.5Z" fill="white"/>
<path d="M26.25 16.25H17.5C16.5335 16.25 15.75 17.0335 15.75 18V26.75C15.75 27.7165 16.5335 28.5 17.5 28.5H26.25C27.2165 28.5 28 27.7165 28 26.75V18C28 17.0335 27.2165 16.25 26.25 16.25Z" fill="white"/>
</svg>
