<svg width="40" height="41" viewBox="0 0 40 41" fill="none" xmlns="http://www.w3.org/2000/svg">
<rect width="40" height="41" fill="#1E1E1E"/>
<g id="Band-Page" clip-path="url(#clip0_241_475)">
<g id="Sidebar">
<rect width="56" height="737" transform="translate(-8 -348)" fill="#730742"/>
<g id="Frame 70">
<g id="&#240;&#159;&#166;&#134; icon &#34;Ticket&#34;">
<path id="Vector" d="M36.25 18C36.5815 18 36.8995 17.8683 37.1339 17.6339C37.3683 17.3995 37.5 17.0815 37.5 16.75V10.5C37.5 9.83696 37.2366 9.20107 36.7678 8.73223C36.2989 8.26339 35.663 8 35 8H5C4.33696 8 3.70107 8.26339 3.23223 8.73223C2.76339 9.20107 2.5 9.83696 2.5 10.5V16.75C2.5 17.0815 2.6317 17.3995 2.86612 17.6339C3.10054 17.8683 3.41848 18 3.75 18C4.41304 18 5.04893 18.2634 5.51777 18.7322C5.98661 19.2011 6.25 19.837 6.25 20.5C6.25 21.163 5.98661 21.7989 5.51777 22.2678C5.04893 22.7366 4.41304 23 3.75 23C3.41848 23 3.10054 23.1317 2.86612 23.3661C2.6317 23.6005 2.5 23.9185 2.5 24.25V30.5C2.5 31.163 2.76339 31.7989 3.23223 32.2678C3.70107 32.7366 4.33696 33 5 33H35C35.663 33 36.2989 32.7366 36.7678 32.2678C37.2366 31.7989 37.5 31.163 37.5 30.5V24.25C37.5 23.9185 37.3683 23.6005 37.1339 23.3661C36.8995 23.1317 36.5815 23 36.25 23C35.587 23 34.9511 22.7366 34.4822 22.2678C34.0134 21.7989 33.75 21.163 33.75 20.5C33.75 19.837 34.0134 19.2011 34.4822 18.7322C34.9511 18.2634 35.587 18 36.25 18ZM35 25.3375V30.5H26.25V26.75H23.75V30.5H5V25.3375C6.07 25.0578 7.01708 24.4313 7.69303 23.556C8.36898 22.6807 8.73564 21.6059 8.73564 20.5C8.73564 19.3941 8.36898 18.3193 7.69303 17.444C7.01708 16.5687 6.07 15.9422 5 15.6625V10.5H23.75V14.25H26.25V10.5H35V15.6625C33.93 15.9422 32.9829 16.5687 32.307 17.444C31.631 18.3193 31.2644 19.3941 31.2644 20.5C31.2644 21.6059 31.631 22.6807 32.307 23.556C32.9829 24.4313 33.93 25.0578 35 25.3375Z" fill="white"/>
<path id="Vector_2" d="M23.75 16.75H26.25V24.25H23.75V16.75Z" fill="white"/>
</g>
</g>
</g>
</g>
<defs>
<clipPath id="clip0_241_475">
<rect width="1440" height="1080" fill="white" transform="translate(-8 -348)"/>
</clipPath>
</defs>
</svg>
