<svg width="28" height="29" viewBox="0 0 28 29" fill="none" xmlns="http://www.w3.org/2000/svg">
<path d="M22 13.5V15.5C22 15.9125 21.6625 16.25 21.25 16.25H15.75V21.75C15.75 22.1625 15.4125 22.5 15 22.5H13C12.5875 22.5 12.25 22.1625 12.25 21.75V16.25H6.75C6.3375 16.25 6 15.9125 6 15.5V13.5C6 13.0875 6.3375 12.75 6.75 12.75H12.25V7.25C12.25 6.8375 12.5875 6.5 13 6.5H15C15.4125 6.5 15.75 6.8375 15.75 7.25V12.75H21.25C21.6625 12.75 22 13.0875 22 13.5ZM28 3.5V25.5C28 27.1562 26.6562 28.5 25 28.5H3C1.34375 28.5 0 27.1562 0 25.5V3.5C0 1.84375 1.34375 0.5 3 0.5H25C26.6562 0.5 28 1.84375 28 3.5ZM25 25.125V3.875C25 3.66875 24.8312 3.5 24.625 3.5H3.375C3.16875 3.5 3 3.66875 3 3.875V25.125C3 25.3312 3.16875 25.5 3.375 25.5H24.625C24.8312 25.5 25 25.3312 25 25.125Z" fill="white"/>
</svg>
