<svg width="40" height="44" viewBox="0 0 40 44" fill="none" xmlns="http://www.w3.org/2000/svg">
<path fill-rule="evenodd" clip-rule="evenodd" d="M21.4815 7.37683C21.4815 6.3837 21.248 5.40422 20.7993 4.51593C20.4115 3.7481 20.1838 2.91087 20.1297 2.05408L20 0L19.8704 2.054C19.8162 2.9108 19.5885 3.74807 19.2007 4.5159C18.7521 5.40421 18.5185 6.38372 18.5185 7.37687V36.6231C18.5185 37.6162 18.7521 38.5958 19.2007 39.4841C19.5885 40.2519 19.8162 41.0892 19.8704 41.946L20 44L20.1297 41.9459C20.1838 41.0891 20.4115 40.2519 20.7993 39.484C21.248 38.5958 21.4815 37.6163 21.4815 36.6231V7.37683ZM13.3919 7.44926C13.8406 8.33755 14.0741 9.31709 14.0741 10.3102V33.6898C14.0741 34.683 13.8406 35.6625 13.3919 36.5508C13.0041 37.3186 12.7764 38.1559 12.7222 39.0126L12.5926 41.0667L12.463 39.0126C12.4088 38.1559 12.1811 37.3186 11.7933 36.5508C11.3446 35.6625 11.1111 34.683 11.1111 33.6898V10.3102C11.1111 9.31709 11.3446 8.33755 11.7933 7.44926C12.1811 6.68143 12.4088 5.84418 12.463 4.98738L12.5926 2.93334L12.7222 4.98738C12.7764 5.84418 13.0041 6.68143 13.3919 7.44926ZM10.3704 13.2435C10.3704 12.2503 10.1369 11.2709 9.68815 10.3826C9.30037 9.61473 9.07266 8.7775 9.01857 7.9207L8.88889 5.86666L8.75921 7.9207C8.70512 8.7775 8.4774 9.61473 8.0896 10.3826C7.64097 11.2709 7.40741 12.2503 7.40741 13.2435V30.7565C7.40741 31.7496 7.64097 32.7291 8.0896 33.6174C8.4774 34.3853 8.70512 35.2225 8.75921 36.0793L8.88889 38.1333L9.01857 36.0793C9.07266 35.2225 9.30037 34.3853 9.68815 33.6174C10.1369 32.7291 10.3704 31.7496 10.3704 30.7565V13.2435ZM5.98447 16.2492C6.4331 17.1375 6.66667 18.117 6.66667 19.1102V24.8898C6.66667 25.8829 6.4331 26.8625 5.98447 27.7507C5.59668 28.5186 5.36895 29.3558 5.31486 30.2126L5.18518 32.2667L5.05551 30.2126C5.00142 29.3558 4.77369 28.5186 4.3859 27.7507C3.93727 26.8625 3.7037 25.8829 3.7037 24.8898V19.1102C3.7037 18.117 3.93727 17.1375 4.3859 16.2492C4.77369 15.4814 5.00142 14.6441 5.05551 13.7874L5.18518 11.7333L5.31486 13.7874C5.36895 14.6441 5.59668 15.4814 5.98447 16.2492ZM2.96281 22L2.96296 22.0435V21.9565L2.96281 22ZM0 22.0435L0.000149465 22C0.00686968 22.9783 0.240118 23.9421 0.682195 24.8174C1.06999 25.5853 1.29771 26.4225 1.35181 27.2793L1.48148 29.3333L1.61116 27.2793C1.66525 26.4225 1.89297 25.5853 2.28077 24.8174C2.72284 23.9421 2.95609 22.9783 2.96281 22C2.95609 21.0217 2.72284 20.0579 2.28077 19.1826C1.89297 18.4147 1.66525 17.5775 1.61116 16.7207L1.48148 14.6667L1.35181 16.7207C1.29771 17.5775 1.06999 18.4147 0.682195 19.1826C0.240118 20.0579 0.00686969 21.0217 0.000149465 22L0 21.9565V22.0435ZM17.0956 4.51592C17.5443 5.40421 17.7778 6.38371 17.7778 7.37685V36.6231C17.7778 37.6163 17.5443 38.5958 17.0956 39.484C16.7078 40.2519 16.4801 41.0891 16.4259 41.9459L16.2963 44L16.1667 41.9459C16.1125 41.0891 15.8848 40.2519 15.497 39.484C15.0483 38.5958 14.8148 37.6163 14.8148 36.6231V7.37685C14.8148 6.38371 15.0483 5.40421 15.497 4.51592C15.8848 3.74808 16.1125 2.91083 16.1667 2.05404L16.2963 0L16.4259 2.05404C16.4801 2.91083 16.7078 3.74808 17.0956 4.51592ZM24.503 4.51592C24.9517 5.40421 25.1852 6.38371 25.1852 7.37685V36.6231C25.1852 37.6163 24.9517 38.5958 24.503 39.484C24.1152 40.2519 23.8875 41.0891 23.8333 41.9459L23.7037 44L23.5741 41.9459C23.5199 41.0891 23.2922 40.2519 22.9044 39.484C22.4557 38.5958 22.2222 37.6163 22.2222 36.6231V7.37685C22.2222 6.38371 22.4557 5.40421 22.9044 4.51592C23.2922 3.74808 23.5199 2.91083 23.5741 2.05404L23.7037 0L23.8333 2.05404C23.8875 2.91083 24.1152 3.74808 24.503 4.51592ZM28.8889 10.3102C28.8889 9.31709 28.6554 8.33755 28.2067 7.44926C27.8189 6.68143 27.5912 5.84418 27.537 4.98738L27.4074 2.93334L27.2778 4.98738C27.2236 5.84418 26.9959 6.68143 26.6081 7.44926C26.1594 8.33755 25.9259 9.31709 25.9259 10.3102V33.6898C25.9259 34.683 26.1594 35.6625 26.6081 36.5508C26.9959 37.3186 27.2236 38.1559 27.2778 39.0126L27.4074 41.0667L27.537 39.0126C27.5912 38.1559 27.8189 37.3186 28.2067 36.5508C28.6554 35.6625 28.8889 34.683 28.8889 33.6898V10.3102ZM31.9104 10.3826C32.3591 11.2709 32.5926 12.2503 32.5926 13.2435V30.7565C32.5926 31.7496 32.3591 32.7291 31.9104 33.6174C31.5226 34.3853 31.2949 35.2225 31.2407 36.0793L31.1111 38.1333L30.9815 36.0793C30.9273 35.2225 30.6996 34.3853 30.3119 33.6174C29.8632 32.7291 29.6296 31.7496 29.6296 30.7565V13.2435C29.6296 12.2503 29.8632 11.2709 30.3119 10.3826C30.6996 9.61473 30.9273 8.7775 30.9815 7.9207L31.1111 5.86666L31.2407 7.9207C31.2949 8.7775 31.5226 9.61473 31.9104 10.3826ZM36.2963 19.1102C36.2963 18.117 36.0628 17.1375 35.6141 16.2492C35.2263 15.4814 34.9986 14.6441 34.9444 13.7874L34.8148 11.7333L34.6852 13.7874C34.631 14.6441 34.4033 15.4814 34.0156 16.2492C33.5669 17.1375 33.3333 18.117 33.3333 19.1102V24.8898C33.3333 25.8829 33.5669 26.8625 34.0156 27.7507C34.4033 28.5186 34.631 29.3558 34.6852 30.2126L34.8148 32.2667L34.9444 30.2126C34.9986 29.3558 35.2263 28.5186 35.6141 27.7507C36.0628 26.8625 36.2963 25.8829 36.2963 24.8898V19.1102ZM39.9998 22C39.9999 22.0145 40 22.029 40 22.0435V21.9565C40 21.971 39.9999 21.9855 39.9998 22ZM37.0372 22C37.0439 22.9783 37.2771 23.9421 37.7193 24.8174C38.107 25.5853 38.3347 26.4225 38.3889 27.2793L38.5185 29.3333L38.6481 27.2793C38.7023 26.4225 38.93 25.5853 39.3178 24.8174C39.7599 23.9421 39.9931 22.9783 39.9998 22C39.9931 21.0217 39.7599 20.0579 39.3178 19.1826C38.93 18.4147 38.7023 17.5775 38.6481 16.7207L38.5185 14.6667L38.3889 16.7207C38.3347 17.5775 38.107 18.4147 37.7193 19.1826C37.2771 20.0579 37.0439 21.0217 37.0372 22ZM37.0372 22C37.0371 21.9855 37.037 21.971 37.037 21.9565V22.0435C37.037 22.029 37.0371 22.0145 37.0372 22Z" fill="white"/>
</svg>
